<svg xmlns="http://www.w3.org/2000/svg" xmlns:xlink="http://www.w3.org/1999/xlink" width="1199" height="326" viewBox="0 0 1199 326">
  <g fill="none" fill-rule="evenodd">
    <path fill="#FFF" fill-rule="nonzero" d="M874.485207,126.647752 L874.485207,100.662001 C874.485207,100.109716 874.932922,99.6620012 875.485207,99.6620012 L934.06407,99.6620012 C934.616355,99.6620012 935.06407,100.109716 935.06407,100.662001 L935.06407,294.07769 C935.06407,294.629975 934.616355,295.07769 934.06407,295.07769 L875.485207,295.07769 C874.932922,295.07769 874.485207,294.629975 874.485207,294.07769 L874.485207,268.091939 C856.951107,284.811935 833.207798,295.07769 807.066794,295.07769 C753.104242,295.07769 709.35895,251.332398 709.35895,197.369846 C709.35895,143.407293 753.104242,99.6620012 807.066794,99.6620012 C833.207798,99.6620012 856.951107,109.927756 874.485207,126.647752 Z M243.292532,99.6620012 L243.292532,2.95415689 C243.292532,2.40187214 242.844817,1.95415689 242.292532,1.95415689 L183.713669,1.95415689 C183.161384,1.95415689 182.713669,2.40187214 182.713669,2.95415689 L182.713669,2.95415689 L182.713669,294.07769 C182.713669,294.629975 183.161384,295.07769 183.713669,295.07769 L242.292532,295.07769 C242.844817,295.07769 243.292532,294.629975 243.292532,294.07769 L243.292532,160.240865 L303.871396,160.240865 L303.871396,294.07769 C303.871396,294.629975 304.319111,295.07769 304.871396,295.07769 L363.450259,295.07769 C364.002544,295.07769 364.450259,294.629975 364.450259,294.07769 L364.450259,2.95415689 C364.450259,2.40187214 364.002544,1.95415689 363.450259,1.95415689 L304.871396,1.95415689 C304.319111,1.95415689 303.871396,2.40187214 303.871396,2.95415689 L303.871396,2.95415689 L303.871396,99.6620012 L243.292532,99.6620012 Z M30.2894317,115.323452 L90.8682952,115.323452 L121.157727,325.367122 L0,325.367122 L30.2894317,115.323452 Z M18.4502451,51.0780507 L59.8717567,9.65653911 C60.262281,9.26601482 60.895446,9.26601482 61.2859703,9.65653911 L102.707482,51.0780507 C103.098006,51.468575 103.098006,52.10174 102.707482,52.4922643 L61.2859703,93.9137759 C60.895446,94.3043002 60.262281,94.3043002 59.8717567,93.9137759 L18.4502451,52.4922643 C18.0597208,52.10174 18.0597208,51.468575 18.4502451,51.0780507 Z M491.470457,295.07769 C437.507905,295.07769 393.762613,251.332398 393.762613,197.369846 C393.762613,143.407293 437.507905,99.6620012 491.470457,99.6620012 C545.433009,99.6620012 589.178301,143.407293 589.178301,197.369846 C589.178301,251.332398 545.433009,295.07769 491.470457,295.07769 Z M491.470457,234.498826 C511.976227,234.498826 528.599438,217.875615 528.599438,197.369846 C528.599438,176.864076 511.976227,160.240865 491.470457,160.240865 C470.964687,160.240865 454.341476,176.864076 454.341476,197.369846 C454.341476,217.875615 470.964687,234.498826 491.470457,234.498826 Z M619.490655,2.3707015 L678.069518,2.3707015 C678.621803,2.3707015 679.069518,2.81841675 679.069518,3.3707015 L679.069518,294.494234 C679.069518,295.046519 678.621803,295.494234 678.069518,295.494234 L619.490655,295.494234 C618.93837,295.494234 618.490655,295.046519 618.490655,294.494234 L618.490655,3.3707015 C618.490655,2.81841675 618.93837,2.3707015 619.490655,2.3707015 Z M807.066794,234.498826 C827.572564,234.498826 844.195775,217.875615 844.195775,197.369846 C844.195775,176.864076 827.572564,160.240865 807.066794,160.240865 C786.561024,160.240865 769.937813,176.864076 769.937813,197.369846 C769.937813,217.875615 786.561024,234.498826 807.066794,234.498826 Z M1023.59356,185.224682 C1023.16649,184.97811 1022.98292,184.45701 1023.16117,183.997206 L1093.90607,1.50459071 C1093.9246,1.45677391 1093.94679,1.4104539 1093.97243,1.36604062 C1094.24857,0.887747997 1094.86016,0.723872841 1095.33846,1.00001522 L1095.33846,1.00001522 L1198.24293,60.4119375 C1198.28734,60.4375795 1198.32971,60.4666001 1198.36967,60.4987423 C1198.80003,60.8448867 1198.86829,61.474361 1198.52215,61.9047127 L1075.85135,214.417897 C1075.54227,214.802165 1074.99921,214.903744 1074.57213,214.657172 L1023.59356,185.224682 Z M979.75204,261.451939 C979.273747,261.175797 979.109872,260.564206 979.386014,260.085914 L1008.67545,209.35513 C1008.95159,208.876837 1009.56318,208.712962 1010.04147,208.989104 L1060.77226,238.278536 C1061.25055,238.554678 1061.41442,239.166269 1061.13828,239.644561 L1031.84885,290.375345 C1031.57271,290.853638 1030.96112,291.017513 1030.48282,290.741371 L979.75204,261.451939 Z"/>
  </g>
</svg>
